<mxfile host="app.diagrams.net" agent="Mozilla/5.0 (Windows NT 10.0; Win64; x64; rv:128.0) Gecko/20100101 Firefox/128.0" version="24.7.5">
  <diagram name="Page-1" id="2JZqlUa5kmFSTl0Y8lJb">
    <mxGraphModel dx="1904" dy="563" grid="1" gridSize="10" guides="1" tooltips="1" connect="1" arrows="1" fold="1" page="1" pageScale="1" pageWidth="827" pageHeight="1169" math="0" shadow="0">
      <root>
        <mxCell id="0" />
        <mxCell id="1" parent="0" />
        <mxCell id="0Gz_GeR-MyqR9cpySsA0-32" value="Autopilot" style="rounded=1;whiteSpace=wrap;html=1;fillColor=#f5f5f5;fontColor=#333333;strokeColor=#666666;dashed=1;verticalAlign=top;" vertex="1" parent="1">
          <mxGeometry x="140" y="455" width="400" height="130" as="geometry" />
        </mxCell>
        <mxCell id="0Gz_GeR-MyqR9cpySsA0-31" value="Aircraft" style="rounded=1;whiteSpace=wrap;html=1;fillColor=#f5f5f5;fontColor=#333333;strokeColor=#666666;dashed=1;verticalAlign=top;" vertex="1" parent="1">
          <mxGeometry x="140" y="140" width="460" height="130" as="geometry" />
        </mxCell>
        <mxCell id="0Gz_GeR-MyqR9cpySsA0-21" value="sensor readings" style="edgeStyle=orthogonalEdgeStyle;rounded=0;orthogonalLoop=1;jettySize=auto;html=1;exitX=0.5;exitY=1;exitDx=0;exitDy=0;entryX=0.5;entryY=0;entryDx=0;entryDy=0;" edge="1" parent="1" source="0Gz_GeR-MyqR9cpySsA0-1" target="0Gz_GeR-MyqR9cpySsA0-5">
          <mxGeometry relative="1" as="geometry" />
        </mxCell>
        <mxCell id="0Gz_GeR-MyqR9cpySsA0-1" value="Sensors" style="rounded=1;whiteSpace=wrap;html=1;" vertex="1" parent="1">
          <mxGeometry x="400" y="320" width="120" height="80" as="geometry" />
        </mxCell>
        <mxCell id="0Gz_GeR-MyqR9cpySsA0-19" value="&lt;div&gt;forces and&lt;/div&gt;&lt;div&gt;moments&lt;/div&gt;" style="edgeStyle=orthogonalEdgeStyle;rounded=0;orthogonalLoop=1;jettySize=auto;html=1;exitX=1;exitY=0.5;exitDx=0;exitDy=0;" edge="1" parent="1" source="0Gz_GeR-MyqR9cpySsA0-2" target="0Gz_GeR-MyqR9cpySsA0-3">
          <mxGeometry relative="1" as="geometry" />
        </mxCell>
        <mxCell id="0Gz_GeR-MyqR9cpySsA0-2" value="&lt;div&gt;Forces&lt;/div&gt;&lt;div&gt;and&lt;/div&gt;&lt;div&gt;Moments&lt;/div&gt;" style="rounded=1;whiteSpace=wrap;html=1;" vertex="1" parent="1">
          <mxGeometry x="160" y="160" width="120" height="80" as="geometry" />
        </mxCell>
        <mxCell id="0Gz_GeR-MyqR9cpySsA0-20" value="true state" style="edgeStyle=orthogonalEdgeStyle;rounded=0;orthogonalLoop=1;jettySize=auto;html=1;exitX=0.5;exitY=1;exitDx=0;exitDy=0;" edge="1" parent="1" source="0Gz_GeR-MyqR9cpySsA0-3" target="0Gz_GeR-MyqR9cpySsA0-1">
          <mxGeometry relative="1" as="geometry" />
        </mxCell>
        <mxCell id="0Gz_GeR-MyqR9cpySsA0-24" style="edgeStyle=orthogonalEdgeStyle;rounded=0;orthogonalLoop=1;jettySize=auto;html=1;exitX=1;exitY=0.75;exitDx=0;exitDy=0;" edge="1" parent="1" source="0Gz_GeR-MyqR9cpySsA0-3">
          <mxGeometry relative="1" as="geometry">
            <mxPoint x="520.1379310344828" y="180" as="targetPoint" />
          </mxGeometry>
        </mxCell>
        <mxCell id="0Gz_GeR-MyqR9cpySsA0-25" value="&lt;div&gt;numeric&lt;/div&gt;&lt;div&gt;integration&lt;/div&gt;" style="edgeLabel;html=1;align=center;verticalAlign=middle;resizable=0;points=[];" vertex="1" connectable="0" parent="0Gz_GeR-MyqR9cpySsA0-24">
          <mxGeometry x="-0.0548" relative="1" as="geometry">
            <mxPoint x="20" y="-3" as="offset" />
          </mxGeometry>
        </mxCell>
        <mxCell id="0Gz_GeR-MyqR9cpySsA0-30" style="edgeStyle=orthogonalEdgeStyle;rounded=0;orthogonalLoop=1;jettySize=auto;html=1;exitX=0.5;exitY=1;exitDx=0;exitDy=0;entryX=0.75;entryY=1;entryDx=0;entryDy=0;dashed=1;" edge="1" parent="1" source="0Gz_GeR-MyqR9cpySsA0-3" target="0Gz_GeR-MyqR9cpySsA0-2">
          <mxGeometry relative="1" as="geometry" />
        </mxCell>
        <mxCell id="0Gz_GeR-MyqR9cpySsA0-3" value="&lt;div&gt;Kinematics&lt;/div&gt;&lt;div&gt;and&lt;/div&gt;&lt;div&gt;Dynamics&lt;br&gt;&lt;/div&gt;" style="rounded=1;whiteSpace=wrap;html=1;" vertex="1" parent="1">
          <mxGeometry x="400" y="160" width="120" height="80" as="geometry" />
        </mxCell>
        <mxCell id="0Gz_GeR-MyqR9cpySsA0-18" style="edgeStyle=orthogonalEdgeStyle;rounded=0;orthogonalLoop=1;jettySize=auto;html=1;exitX=0.5;exitY=0;exitDx=0;exitDy=0;entryX=0.5;entryY=1;entryDx=0;entryDy=0;" edge="1" parent="1" source="0Gz_GeR-MyqR9cpySsA0-4" target="0Gz_GeR-MyqR9cpySsA0-2">
          <mxGeometry relative="1" as="geometry" />
        </mxCell>
        <mxCell id="0Gz_GeR-MyqR9cpySsA0-22" value="actuator deltas" style="edgeLabel;html=1;align=center;verticalAlign=middle;resizable=0;points=[];" vertex="1" connectable="0" parent="0Gz_GeR-MyqR9cpySsA0-18">
          <mxGeometry x="-0.0457" y="2" relative="1" as="geometry">
            <mxPoint as="offset" />
          </mxGeometry>
        </mxCell>
        <mxCell id="0Gz_GeR-MyqR9cpySsA0-4" value="Actuators" style="rounded=1;whiteSpace=wrap;html=1;" vertex="1" parent="1">
          <mxGeometry x="160" y="320" width="120" height="80" as="geometry" />
        </mxCell>
        <mxCell id="0Gz_GeR-MyqR9cpySsA0-16" value="&lt;div&gt;estimated&lt;/div&gt;&lt;div&gt;state&lt;br&gt;&lt;/div&gt;" style="edgeStyle=orthogonalEdgeStyle;rounded=0;orthogonalLoop=1;jettySize=auto;html=1;exitX=0;exitY=0.5;exitDx=0;exitDy=0;entryX=1;entryY=0.5;entryDx=0;entryDy=0;" edge="1" parent="1" source="0Gz_GeR-MyqR9cpySsA0-5" target="0Gz_GeR-MyqR9cpySsA0-6">
          <mxGeometry relative="1" as="geometry" />
        </mxCell>
        <mxCell id="0Gz_GeR-MyqR9cpySsA0-5" value="&lt;div&gt;Estimation&lt;/div&gt;&lt;div&gt;Filters&lt;br&gt;&lt;/div&gt;" style="rounded=1;whiteSpace=wrap;html=1;" vertex="1" parent="1">
          <mxGeometry x="400" y="480" width="120" height="80" as="geometry" />
        </mxCell>
        <mxCell id="0Gz_GeR-MyqR9cpySsA0-17" value="autopilot deltas" style="edgeStyle=orthogonalEdgeStyle;rounded=0;orthogonalLoop=1;jettySize=auto;html=1;exitX=0.5;exitY=0;exitDx=0;exitDy=0;entryX=0.5;entryY=1;entryDx=0;entryDy=0;" edge="1" parent="1" source="0Gz_GeR-MyqR9cpySsA0-6" target="0Gz_GeR-MyqR9cpySsA0-4">
          <mxGeometry relative="1" as="geometry" />
        </mxCell>
        <mxCell id="0Gz_GeR-MyqR9cpySsA0-6" value="&lt;div&gt;Control&lt;/div&gt;&lt;div&gt;and&lt;/div&gt;&lt;div&gt;Navigation&lt;br&gt;&lt;/div&gt;" style="rounded=1;whiteSpace=wrap;html=1;" vertex="1" parent="1">
          <mxGeometry x="160" y="480" width="120" height="80" as="geometry" />
        </mxCell>
        <mxCell id="0Gz_GeR-MyqR9cpySsA0-14" value="controller commands" style="edgeStyle=orthogonalEdgeStyle;rounded=0;orthogonalLoop=1;jettySize=auto;html=1;exitX=1;exitY=0.5;exitDx=0;exitDy=0;entryX=0.5;entryY=1;entryDx=0;entryDy=0;" edge="1" parent="1" source="0Gz_GeR-MyqR9cpySsA0-9" target="0Gz_GeR-MyqR9cpySsA0-6">
          <mxGeometry x="-0.4075" y="10" relative="1" as="geometry">
            <mxPoint as="offset" />
          </mxGeometry>
        </mxCell>
        <mxCell id="0Gz_GeR-MyqR9cpySsA0-9" value="" style="shape=image;verticalLabelPosition=bottom;labelBackgroundColor=default;verticalAlign=top;aspect=fixed;imageAspect=0;image=data:image/png,iVBORw0KGgoAAAANSUhEUgAAAMgAAADICAYAAACtWK6eAAAABHNCSVQICAgIfAhkiAAAAAlwSFlzAAALEwAACxMBAJqcGAAAFV9JREFUeJztnXnUHUWVwH/fEhIgIYEkhBDIhoZAEBP2CME4giLoICDDzugIAiLjsIkMRhkQcQYQRRmjKNswnpEZmWGJAwYHkMWgLCFAgARCIiGQkEAWQrZvmT9uv9MvL93V3a+Xqu53f+fc876vX1fXfdV9q6qrbt1qQ3GJmcChwEbgPWAF8BawEFgAvADM8Y712lFRUezxIPLgR8mbwJ3AucBYK5oqigXiGkijvARcAUwoXmVFKY5mDaRe/gScAWxTsO6Kkjt3AG8Ay4Fu0hnKcuBKYGihv6BitNlWQAmlHRgE7AqMAfYAPgrsT7L3jrXAj4BrgJUZ66goTjIcOBn4N2SkK06L8g5wNtBhQV9FsUYf4AjgV8AG4r2j7G1FU0WxzBDgUmAJZiPZBEwDOu2oqSh26Qucg8yXmAzlMeQdR1Fakq2By5AX9TAjWQZ8wpaCiuICuwD3EG4kXcCZ1rRzGB3mdYubgH2QGn850kV6HXgRmA0sTXHtNuAk4F+BgSHnXIW8m6ifl+IkUTPprwG/BI4HBjSZxyhgliGPG5A5GEVxjiSuJuuA/0SGeJPObfQFfma49o1o70JxkGZ9seYDXwX6JcirDbgA6Am55j+n/jWKkjFpnRXfAL5MshblZOQlPeh656X9QYqSJQOQEafxwMeA05EX57uBd4lvKM8A+yXI9xhk8rDxOt3AUSl/k6IUQjswCfgmsrIwyki6ge8DW8W8/gkEexCvBD6U1Y9QlCJoQ4xlOtH+V08hI1dxODfkGs+R7P1GUZxhZ+A6YD3hRrIcWeseh+tDrvGDTLVWlILZDfgt4UayETgxxnU6gYdCrjE1a6UVpUjagL9B3huCHvAe4EsxrjMM8dFqTD8P8e9SlFIzBln3EWYkp8S4xlEh6S/PXl1FicclwC+QSbqvAZ9Elt02Q19kEVXQQ74JOCzGNW4JSPsB6iKvWCJoorAHmdf4J2RdehLakfXoQUayChgXkX4HgrtatybUQ1EyIc5M+h+AzxHfV6oNuDbkWi8SHR7ozIB03cDuMfNXlMxI4mryJHBQzOu2A7eHXGd6RNoOJNxpY7rbY+atKJmR1BerB+lCxRlZ6gM8HHKdwyPSHh2QZhPiFqMohbE34r7+t4gP1gOYl8vWZDYychXFzgS/UyzAbGRtwLMB6a5O8uMUJQ/6An+NOCyGuab3IqsN941xvU+FpL8sIt0pAWneRlomRXGC8cBvCDeSVUjkxShuC0i7GhhsSNMHf9uFejm6id+hKLlyJMEPay8SaTFq+HYYsv9IY9rvRaS7OiDNfzT1CxQlZ3YCHifYSF4ies36hQHp3otIt3tAmrVoJHnFUbYGZhBsJLdFpN0W8fJtTHdORLrZAWl0UZXiLP0I9749MiLtZQFpno5I852AND9pUndFKYQdkPhZjQ/ufMwrCocSvNTWNEu+f8D5c9Opryj5czDBw8BnRaS7OyCNaci3neAXfNMImKI4wXS2fHBfwxzl5AsBaR6NyCfovSeqO6co1hlG8Mz7EYY027Fl2J8u5CU+jGlsmcc3U+ruJBpislosBW4OOH6qIc1qJLBDPR3AAYY0cwKOVXJTHjWQ6vHzgGNHYd4s56GAY5MM578QcKyS+7WrgVSP54FXGo4NQqLGhxHUIuxlOP8vyIBAPXGcJUuHGkg1eSDgmGntSKNBgURJCWMTsjVDPTtSQcdFNZBqMivg2ATD+fMCjo2MyGNZwLEdItKUDjWQavJywLHRhvPfR4Ix1BM1r7Ei4Fjl5kLUQKrJ4oBjQyPSrGn4fwDm56PRoKCC4Ul1G2C7tBFd6y5v4rprkPmQJCwF+jcc64ts1BPEqoA8Kvc86S5CdulEXnhN6D2yiHaxFMVA5ZrEktENTLathBKONt9u0MGWC5xM7iGK0lJ0sqXzn+IA+g6iKAbUQBTFgBqIohhQA1EUA2ogimJADURRDKiBKIoBNRBFMaAGoigG1EAUxYAaiKIYUANRFANqIIpiQA1EUQyogSiKATUQRTGgBqIoBnRNejgdSEDmXZBNKvNanvw4W8akqjGY/Nas9wLrkRha89ky1q6iBPIp4NfASsL3I89SDiF8ye3UgnRYBdzp/XZFCWQSEtO2iAfSNQOplz8CE1OUo1JBzgI2UPzD6KKB9HplcWbTpalUiouw8xC6bCA1Ob/JMq0Mrf6SfixwjeH754HnkD56XiwxfPcmcGOOeW+HdKc+EvL9dcCrwL056qA4yhAkhH9Qzfk/mHdYyhrbcbH2QowgqCyWUcF9P5Rofog73QrbBlLj4gA9ejG3skoF6Y9sGtP4IFxlSR9XDATg2gBdViFzQUqLcCJbPgSvYm+PPZcMpC+wKECfYy3qZI1WdTU5NODYT4neq6MV2AD8LOD4x4tWxAVa1UDGBxx7sHAt3GVmwLGgMqs8rWog2wccW1S4Fu6yMOBY5TbojEOrGkjQu0ZX4Vq4S1BXsyXnzFrVQBQlFmogimJADURRDKiBKIoBNRBFMaAGoigG1EAUxYAaiKIYUANRFANqIIpiQA1EUQyogSiKATUQRTGgBqIoBtRAFMWAGoiiGFADURQDaiCKYqAll1ECq4EXgDeQ8J5LkGgeirAOuALYGdkfZVekzFqOvDaFKSPbIeFIBwIDkOBy/ZGAaX2Rdeyd3meHl6YH6K77nA/8zvs7CZ1suQ68mXvTARwB7Ob93V73iafXJk+6kEphrSfvIxv5rERCsrakQTTSKi3IEOBDnoxBasURnuyExJ7dKqO83kI24PlvZPeoOMbS66Vphk4kQvyxwPHI78mCjYihLEVa2cXe5wIkyN6r3veVpmotSBuwB3AAsA8StXwvxEBs8B7wMPAQ8AQwh/TB6bYC9gYORrZHmAoMSnnNZnkHiYD/PPAs8CfgZexGhsyUKhjIR4BPIw/KIUgXyVU2AHOBF4F5wOvIe9BSYDn+XoUDgKHAjsBIYDQwDjH2PZAun6usBB5DKob7kd+qFMx+wA8IjiGr4pa8jgTE3ifwTiqZ0QF8EZiN/Zuu0pw8A5yGP8ihZMiN2L/BKtnIDykJZXkHGYKMoGQ10pSGbqRvXUY+gxuTw+uQEcT3bCtSFb6C/VqvJu/n/FvzZD32y68mp+f8WzPBhdokDkfYVkDJnM/YViAOZTGQQ2wroGTOFNsKxKEMBjIWmRNQqkXNk8FpymAgk2wroOSG8/e2DAYStsm9Un6cv7dlMJA9bCug5MaethWIogwGsrttBZTcGGdbgSjKYCBjbSug5MZuthWIwnUDGYJ4tirVZDCyUM1ZXDeQkbYVUHLH6XvsuoHsalsBJXfUQFKwi20FlNxx+h67biDDbSug5E5Wa+hzQQ1EsY3T99h1AxlmWwEld3a0rYAJ1w1EnRSrj9P32HUDsRWuRykONZAUDLatgJI7Tt9jlw2kA8dnWZVMsBX0LhYuhx4dRDZBJXqA55DIf/OBd5G12dsizfs44EAkLGkc2oGDMtDLBknKcx4SKXEeEtTuA6AfsD1SZpOAjya8ZhB9kHuxNuV1Wo7dSBcU4EngTCTubhxGAZcgMWdtBzSwJa8AFxPfg2EwcBbw55T5Oruy0OWwP5OQQGNJeRq5yQ/VHRsDTAbGI0PHWyGhZ5YgoTEfQ+LMgnTtTgC+T+u4uixEKof/QlpckHI6GJiAzFVsjYROXYrE330CiWxZ4zDgGmBiE/lPQEKyKgk4lGS10AbgfPz3qkHARcg+IFFpe4BHkciNtdhb29IawequRx5+kJi/X0ai0vfESDsHuAD/XbEDqZw2JtThQJTEHEX8Al4K7O+l6wAuRIIoN/PALES2EahxEmJ8th/krGUdsmVC/e98o8lrvQt8HT+k6MeQFjlu+sNREnMC8Qp3Mf4L9khgVsx0UfJr/LUon0QeKNsPdVayFmmhQWr/uzK67uP4zoe7I3ulxEl3DEpivkR0wa5E+q8gfd+3Y6RJIrPx3V2OIV63w3Xpwg/atjPxuqBJZAl+MIaJyE5VUWlOQUnM14hf8+yJ7HaUxwP1AjK0CXBVTnkUKZd5v2Uw/mY3Wcsy/PXmJ8Y4/0yUxFyMuVBv984bCLwWcW5auR8Z8etA5lRsP+TNyiz8fQv/L+e8Xkb2eATprprO/TpKYqYRXqBr8L1AbzGcl6Wc5+U3paD88pB9vd9wUUH5TffyG4FMNIad9w2UxHyX8AL9F++cAw3nZC0r8f2G8q5985B7Pd2HIRVMEXn24M+L3GA4bxqO4rIvVtg+fL3AT7y/v12QLiBduX/w/v5RgflmxQ3e54X4XZ+8acO/RzcYzutXgC6VI6zGedj7fhTFjyq9jfTf+yBj/7ZbhbiyBKkM+yB+VUXm3YWMlgH8MeSca3AUl1uQMEfKB7zPL1C8q8wwZCuGTUg3qyzMRCqTv6J49/IO/NHGB0LOcdZp1lnFCNftMe/zQOx4gB4MPIK4phxnIf9mqJXZZOyU2WTEbefRkO/7FKhLZbiZ4OY4zSrDNuShvpz0G7h8OkQ/FyXtBkRTkTI7hnSt9ogA3XrxR7uUBNzKlgW5PuU1r2643gkprrVngH6uyugUv/O0hmtdkeJabcgmqI363ZTimrni8jtIUE2VdgPNrzb8f06Ka61Jo0jBpCm3sxv+byzDJPSG6OLssguXDSRIt7Qb0K+K+D8JLr+/NZKm3FY3/J+mzCC43Jx9Dp1VjOBapX/I8bicj6xVABnuTDOPUqb18ml0nYa/n/kGZP1Hs3QC2wQcd7YFKVMtCKLvrsBfkNWBSSe8FgGfQ+ZQXkFGT/ZLeI1lXv5l2rdkDLIefxTNhdk5FvgwUn7vkrzM1iDlPSbk+94mdGp57iD4hfNI7/t/D/k+b6nVoCZfMdekpvOllvK/2cv/mJDvf4mjuNzF6gk5/nHv83dFKdJAbbJrqqX8m8H1Mgu714qBWwmubV7yvh+ITHoVWRPO8fLennItw30fWWMP+a0BCZPVdXmHLUtwdh7E5RZkU8jx8cAByGjKbcWpA/hOiifiB3coA9sirjkAPy44718gFdkUwt/buotTpzpMJ7xWutM7ZwTFtSLzkJf6Du9v261CUpmDjBb1BRYUlOdq/CXL9xjOux4lMT8mvEC7gX288y4wnJeV1Bz9QMLi2H7Ym5UTvd9wREH5nevldxBmz+va+h4lAddhLvwnkdq8Dbgv4ty08l1PpyEkC2fjmizBj4V7Tc553eXl0wcJ+2o69yqUxHyP+A/uACSObB43+g7ECNuA3+aUR5HyG6/M2pGuah55PIE/IXhtjPOLXPhWGeLMM/QAJ3vnD0TCjWZ5o2/Cd9PIu8YtUmoOh52EjxY2Kw/ixxP7Ysw0l6Ak5hvEK9yN+CM0nYjHblfMtGGyBjijTpfLU17PRbm07vedQ/rBjk3AlfgVyknesThp/x4lMXHiYtWkG4nUUWMSMjnVzE2+BT86YD9kltf2w5yX/BR/uHoU0p1spnKZgR8srg34R5Ith9a4WE3wdzR3o+o3pt8bedl/xZCmGwnfP43No7nvT7ljYMWVp5EKpcYo4Dve8aC1GzV5Cel2TqhLO4bmKqaTURITNzZvo6xFulmNu6cORpbLHoc0/0cjRtDo8DgO6ZebHo6qSRfSUjZuIjQAmZT9vFdmxyKBqRv3XBmGDNWaYl+Z5PMoiUkS3T1I1iP7XZxAtAfrWOArSCCGKsTfbVa6kZfsM4hehTgMMZq7SO92c1hEXtZw1g8fiT7+SIbXexOZAX8XidTeHzGc3dHddMN4B+meLkf8ubZBWo9x+KF8suAgZF7LOVxeD5L1ktYROLzVl6MMpZhtmhtXLTqDy86KK20roBSGGkgTqIG0Ds7e67RBEPJkIzI7PhG3u4JK86xDnFLvs61ImRmODNuWKRauilmWI350NVd4pUnuxd8BdWvEt+dRWnsotqzSgwQePw0/mvtk4G6UpqntOfgIMplU6xKORXyJnsb+jVcxy58RZ8TR3r3rRCYcH/O+fwOlaV5k88JejKwdGF93zkgk2t8MZKze9gPR6rIGafnPxvdpAwnVejWyJqX+/GdRmuZhwm/Es8C3kIKvsRUSwePbwO8pPqhDK8r7yOz7NGTdeX2k9r28e2HyabMVaSUWro8OLTN8N9GTK4HXkcVMM5E1IbUZ+E7EYfFAxO9qX8SgXP/drtKFtOpPeTILeB4/6MJA4LPA4Uj8slExrvlO9mpmh8uuJiC7TJ0XedbmdAPPAH9AXuhnAUvrvu+LeKDujdRweyBGMxK354WKpAeJojgX8dp9AWkF5uKHbgXYCXETmYK03BNJPnVwHZsvVXAK12vSt5pI04G0Fvsj+/GBtDBPIYbzNBLh45mGdP2Ql/8PI27bNRmJuME3erCWnRXIO90ipHwWItFO5nufGxrOH44EftvXk/2I10JEsSSDa+SG6wayOKPr1B724+uOLUNqxpc8eRl4FXnBDIr0tw3ioDfck52QcfyLcXeHpI3Imo2lyIjgW54sQSbpGmlHKoQpiBPnnkgLuxf5+WS9mdN1M8H1LtZU5J2iSDYgtelCpGZdhBhqTd5i823MZuDHC3aN+5Bg3TX6I4a9C9IqjkCGX0cjFchoig+INwV/izglIWOxP0oTJGuAX3k6nu6APmFyqqfjnbg7BF4/FOwcrrcgncjCJxd9xrqQ2rgL6cKE7etui/XIqsptkG6Mi2W4EfGQcDZ4teujNl1IF8dFajPCq4D/RUbPXJIZSEt3HG4aB8hggLPGURZcDtY2M8ffnRUPY7+cwuSe/H52NrjegoC/3YGLfIJiVtw1y3DSb3edJ3NtKxCF68O84O/J4SIdSMjTtVEnWqI/bleCz9tWIIoyGIjrzmyjbStQYly/t86PYoHU0itJvmGn4jarkJ26em0rYsLl5rdGNxItXKkWj+K4cUA5DARkGFWpFvfbViAOZehigbhELMLd8XwlGV2Iq8vbthWJoiwtyJvIvuhKNbiVEhgHlKtG/r33OQFxT1DKxwpkw85vEb6LsZKSrREHwZmk3yhHJX/ZhGyJcCp+NJPSUJZ3kDCGIlHgj0J2oa3aoqaysgJp8Wd4ssKuOs1TdgOppx3ZCOYQTyajwaqLYjEyFP84Mnw7mxIM4cahSgYSxDBkP/VJyOq4PZGQQfoO0xwfICsv53ryLLJ02RRco9RU3UCCaEeGGMcCu3mfo/G3RxhBCfvKGbEOGTGsyULEJX0B8BoS5K0SLUNcWtFA4rAD0voMRjbXqX0OQrYl2877rEk/ZMFUX2TJau3vDvw91mtl3fh/XOpffBv/70aWCtdko/e5DlkT0ijvIe8Fy+s+l3rHlTr+H2JwXlEVEZQeAAAAAElFTkSuQmCC;" vertex="1" parent="1">
          <mxGeometry x="-60" y="585" width="100" height="100" as="geometry" />
        </mxCell>
        <mxCell id="0Gz_GeR-MyqR9cpySsA0-13" style="edgeStyle=orthogonalEdgeStyle;rounded=0;orthogonalLoop=1;jettySize=auto;html=1;exitX=1;exitY=0.5;exitDx=0;exitDy=0;entryX=0;entryY=0.5;entryDx=0;entryDy=0;" edge="1" parent="1" source="0Gz_GeR-MyqR9cpySsA0-10" target="0Gz_GeR-MyqR9cpySsA0-6">
          <mxGeometry relative="1" as="geometry" />
        </mxCell>
        <mxCell id="0Gz_GeR-MyqR9cpySsA0-15" value="mission params" style="edgeLabel;html=1;align=center;verticalAlign=middle;resizable=0;points=[];" vertex="1" connectable="0" parent="0Gz_GeR-MyqR9cpySsA0-13">
          <mxGeometry x="-0.331" y="1" relative="1" as="geometry">
            <mxPoint x="20" y="-9" as="offset" />
          </mxGeometry>
        </mxCell>
        <mxCell id="0Gz_GeR-MyqR9cpySsA0-10" value="" style="shape=image;verticalLabelPosition=bottom;labelBackgroundColor=default;verticalAlign=top;aspect=fixed;imageAspect=0;image=data:image/webp,UklGRvAqAABXRUJQVlA4WAoAAAAQAAAA/wEA/wEAQUxQSFUGAAAB8IVtkyFb27adEXHZtm3btn1dt23bxmXbtm3btm1f17hGR+a5XpU5t4qljIgJQPN/83/zf/N/83/zf/N/83/zf1HVTAd5M50wUMGALzYBoMAi3z3s/IsH+AuO/ukygErtFKtc/AUHe79xY6jUTfDPTPpgT/KYKSBV05OYnAO+O6+bClIvxf4c58A/znNRb8VWTBz8R/whrFbAnRGQ+eL0kDoZNmFmADq/DavV/vQISLwIWifB7UwRkPncZKj0xM8wx8D780DqNNVLMUB+ulCtpo6DhZv/mv+a/5r/mv+a/5r/mv+a/5r/mv+a/5r/mv+a/5r/mv+a/5r/mv+a/5r/mv+a/5r/mv+a/yZAJnk2BjI/mLdSgruYYuCFKVBnxaH0CEi8AlInw1ZMEeD8MaxOwEQPMg1/mW/MBqmUYVf68Dfib2GoteB4jg99I16tqPlkl9DTkJdGvG8mSMUEkx5BknmYy2TmBdNDUHMxbHTtFxzs0717CARVV8CW/tVVz73+5gD/+gs3/X4eQOumWPO8D9Jn73/46WdD/Ifvf/TJ3d+YGFIxwf849GdeOyukWoL96J6HvTTi3dOg1oqt6JmD/zgPg1YKuIGJEfj5opAqKZYYYwiO+HNYlQxb0kPAeSS0Ur8IgsSrIVUCbmYKAXJscWiFFCsxCp1/h1XIsA89CDIfnQw1nuI55iBg5lbQ6hi2Y2IUOs+skOKcQMj8eF5IZQQLfMRAdP4CVhnDr+mBkHg3qqv3MAUCyTWhVVGsw1h0HgariuEIeihkvjYDpCKC6V9jDgUmfgNWEcOXmBgNV6OmgsvCgfTlodVQLDbGcHTuCauG4a/0cMh8firUc9KHmcKBiTvCKqHYlJnx6LwAWo2T6AFBfrYgpAqC2d9jjgjn72BVMHyPzohMvF9QRcGNTCHBzA2gFVAslxiUzuOqYPg/PSgy354DUj5M+TRzUND5Q1jxDNsxMyoTb0H5FWfTw4LkatDCCeb/mDkunAfBCmf4FZ1xmfnytCj+XUyBwcTdYUVTrMHYTLwMUjTDwfTQIMcWgxZMMM1LzLHh/BusYIY9mBibmY9NhoILLgkPZm4FLZZg8c8Zns7TC2b4Cz08Mj+aD1IqTPwIU3jQ+StYoRQbMTM+E+9BqQ3H0wOE5NrQIglmfos5QpxHwIpk+BYTIzTz9RkgJRJcGyRM/DqsQIrlRgzSxGsgBTL8jx4k5Gh5aHkw5VPMUeLcE1YcxbZMjNLMZ6dGgc6ihwkTd4YVRjD3RwxU54WQwhh+Sg8U8vOFIWUBbmeKFOcfYUVRrMpYTXzIUFTDAfRQYeaG0IIIpn+ROVacx8MKYtidibGa+fbskHIILqEHCxN/CCuGYJExhmviLSin4Y/0cCG5GrQU0AeY4sV5MKwQivWYGa+Zr04PKYPhKHrAMPHLsCIIZn6dOWYuhxTB8C0mxuz44tASANdEjfPvsAIolnUGbeZjk6CAhv/Qg4aZW8H6h0mfYo4a5xnQ3hm2YGbUZn4wH6RvilPpYUPnr2E9E8zxHnPcJN6n6Lnhx3QGbua60H4BtzBFjvNoWK8UqzJ2M9+cCdInw/700KHzm7A+YZqXmGMn8VpIjww7MzF6fTlofxQX0KPHuResN4IFPmX4Zj4zNaQvht/Qw4eJO8P6ArmXKX6cF0J6oliPMTy2CKQvR9IjyPlnWC8EM7/OHEGJD0+EXhq+QWcIZ24M7YPgaqYYcp7YC8WSIwZx5ruzQbpn+Ac9iOj8Iax7mPgx5ihKvBXdN2zGzEBeHdo1xcn0OHIe1DnBXO8wx1HmKzNAumX4IZ2BnPgVWLeAW5li6SpIpxQrMZpHS0K7ZNiXHkvOf8G6hCmeY46lzCcmQYcN2zMxmDO3hHVHcU48Oc+AdkawwEcM6A/ng3TF8Ad6PDl/B+vOf2PqX91RLDrGgP58UWhXILiUKZoSL4Wgs4Y9ImoPWHcE073KHEuZr04H6Q4Mh9JjyXkoDB1WrMlwXgvaJUDuZIqkxDsF3Tb8nB5Jzp/DuiWY933mQOL780K6BcXp9Dhyng5F59ZnymGUuH73INiToxRDacS9IOi+4EAyeQAn8gAI+qjY4UmG8JM7Q9FPxeSb73n2xcF79p6bTwZFXxVBrOixmYavGZr/m/+b/5v/m/+b/5v/m/+b/7sKAFZQOCB0JAAAEOgAnQEqAAIAAjwCexyOgAAAlpbuLAp/lZe7YTwj7EfoBIqWptZ0mlNPf706uV93n2orgfz/XLGkevjQmepgp/nyv/Xu4X+u/jJ6D+Ljyr62f2n/yf478G7i/x/9V/m/y89U/1K+k/0j9bP7R/5P9Z///yr9vH4c/k57b/y/2ufkB+QH2Efiv8f/m39E/Wr/Af+X/Jco1n3mC+u/yr+tf3b9cv7P/7f8p9UX0P+i/sf7Ae6n2M/u/5d/QB/Dv43/ZP6h+y/99//XvF/5DzmPsX+/+0D6Av4l/M/7v/bv8J/o/7T///my/nv8p/of9J/kv//8Ufz/+4/6f/DfuD/kf//+Av8c/kv9n/tf+I/1f9x//v/I+4D1x/s77E/6xfevTxOTZjnQvgcRD2VH5ezHOhfA4iHsqPy9mOdFQQYA3iCEmKsZI4iFE6Lcag8CLFCLcag8CLFCLcag8CLFCLcag8CLFCLcnxaOS6goTx76J3fRO76J3fRO76J3xpTttBLqChPHvond9E7vond9E7vpBTyyrLq/RyGlZgBVO+ygZ177DHVG77pgspzImMdR3B5lUXAEqnfZQM699hjqjd90wWU5kTGOo7g8yqLgCVTvsoGde+wx1XmxuVJ2lPFKmluCCY8CdHF6gWds0pYeKWGyFn2ohFuFMMl88qCXmNKWHilhshZ9qIRbhTDJfPKgl5jSlh4pYbIWfaiEW4UwyXzyoJeM2jcLLi0xXClXmDFB5Bqe4ET76J3fRO76J3fRO759DZenV7tHLh3wweRjI7pTttBLqChPHvond9E7dyJGDbcnbmGSjxCEFx/baCXUFCePfRO76J3fPqJ/8Ta4Uq8wYoPIxkd0p22gl1BQnj30Tu+idu5EjBtuTtzDJR4hCC4/ttBLqChPHvond9E7vn1E/+JtcKVeYMUHkYyO6U7bQS6goTx76J3fRO3ciRg23J25hko8QhBcf22gl1BQnj30Tu+id3z6if/E2uFKvMGKDyMZHdKdtoJdQUJ499E7vonbuRIwbbk7cwyUeIQguP7bQS6goTx76J3fRO759RP/ibXClXmDFB5GMjulO20EuoKE8e+id30Tt3IkYNtyduYZKPEIQXH9toJdQUJ499E7vond8+on/xNrhSrzBig8jGR3SnbaCXUFCePfRO76J27kSMG25O3MMktxCFCM3xRLYHMV4g0fFuRCt7ZBM/K0RFnUBhFC2fEFwSkNICFs+ILglIaQELZ8QXBKQ0ggzZ9LMyOKXPFKlUCDKixLQSdmEsU+IpYNopYNopYNopYNopYNopYNopYNopYNopYNopYNopYNopYNopYNopYNopYNopYNopYNopYNopYNopYNuL6DxBaTDiZ0rBkp4pUrI/JmQfCnPDvoeDrwxdOD0yQFmefaAxFecDJ5wZKrnMOxBcILcrQgA6yWi8i0MokFuypCCM8CrLXe3JtxYX1pB9LQ0QGQ49KYlOKyWN5WBewkdg2QxUvrq2gSgdZ/qdtgAvAK2B5TiqLvqDJIfMfbNndKbNMXKCSWRp7Kv7ObYeuqdiLURW5jVAFTIgejennpYMI9YlXLULp2sGBJdHgvMOslHgxYZJlXGL874wj6khoky8ZQ88LnOMRoaQ8D/SBw9ie5xthOjh4ALZrTlLR5h/T9y5Wp389l5ETF72s2FcGTnQ+ySGRSbQsqEVV6HQjCZngf5a5VkMovg5oQQJazEQVBqGMUnhk1E0e+zkeSQS91ySpJzlVsa07qRqwEulvrc+2x6nshnZyMAy1OK6XlBMgQP2n1Y+zKIsIDhTCY8eqfwbb9xAp8Ho+XZJHJ8Bt/LbgU6ILoRdRe5JHjHvbUwd1eXtYmpiZS5+hRTGNeeWUWy+Zl4W8ucsNpyK6vLK+egpR0jqvIfZFg+S7u9rKpiZzk8mWmgAiqH7UkrdZzkj8d7w8T48xa+8uKge/OjC6KqLphAxhbgQgHEAid2YgNYFIHki+gZZOwWSUJ0njaggd5l+m5IBnQN6AvOxJMFM65VOgB1JS5S+cUBanZjegQnCXZpLZnxO76J3eWRhERM6L+KTsbWWZB9jABzu+id30IBKENJ6v7iWhdKdtoJdQTrGwWESJbr0MzXv1VINWgVxgDvghPHvond5ZHc2du58VEz35hDTqliOWNY0nUEWz2cFGkvGnVLEcsaxpOoItj/+lF/XUrk8pYd/fhOOXqjrApVBoE8n7KshGmgi2ezgo0l406pYjljWNJ1BFs9nBMe2/YCYfFL5uh5corMms0cwYZ9fBQ0BKXZdPucgwUbiGgJS7Lp9zkGCjcQ0BKXZdPucgwUbiGgJS7Lp9zkGCjcQ0BKXZdPucgwUbiGgJS7Lp9zkGCjcQ1HabumFPaCXUFCePfRO76J3fRO76J3fRO+NKdtoJdQUJ499E7vond9E7vond9IKe0EuoKE8e+id30Tu+id30Tu+id8aU7bQS6goTx76J3fRO76J3fRO758AAA/v/fb5X10c9dHPXRz10c9dHPXRz10c9dHPXRz10c9dHPXRz10c9dHPXRz10c9dHPXRz10c9dHPXRz10c9dHPXRz10c9dHPXRz10c9dHPXRz10I/t+2QKLCCzEEGggC8qhGZcoa8YsWbzrFJzbZ2vDL5QOy1hhKTlHYcZiXivwje35jTA3U/IIMTh4QAO4kRlxHWI1gfhPsqBkm83b6iW+olvqJb6iW+olvqJb6iW+olvqJb6iW+olvqJb6iW+olvqJb6iW+olvqJb7uDNG7n7aGCA5yxtn2jJ62guBFw7Bk5eyPKoA971z/Ce4fcnqkLKNJOOFx8+47gqUTscX1GHVOEdCIj0WJ4alsHz8K4n/ZGe2feGAfBVdvgE5nWYh98EbFTG4n7LW/tnPA2cNhICPKL1xwRiMB8V8PypIM6e55CSIekZ56F44VR88IjYzfTHVVvCzVOoil7gD/ZVyJpriKTEMR29Fz4JJz4+of/Q/5b7nuPtRxEFdsu5Iqj2av7VWrY7SfE/6f7GuszN02cMnBmDBSDKGnGYSQJ66XCsvYAvA3TQVwhpWYNqasDkT4hoUMHwnkijk8Q1Nbdk+ImDuyf9jhSXS4Vl7Csff9ni+GChj8u4gNUNBXWAgczxoYLEw++g4UcniGprbsnxEwd2T/scKS6XCsvYVj7/s8XwwUMfl3EBqhoK6wEDmeNDBYmH30HCjlFSg6+/a16f61IRwmLsxTlgCLECGhRqrwnTFG8SW0P2ARSZ4jVLrZh+bcefMVLN1Uen3d7yCEroq5a5fbrboi6/HeIOreHRQkbBFY5sncCA87/wIP/1/8eEjGVJOrICZKsp1UiNaXPMtZTUIzJqde94I/3jhZvMjy4voxXQ/CEJ3njsZhVT+YJSjoADxAwu6H40SRALGti3gj9zsfxW4YOqebpk56AcBXllc3VmJ+WX4rfaZ07Zi8dDUbV+52P4rcMHVPN0yc9AOAryyubqzE/LL8VvtM6dsxeOhqNq/c7H8VuGDqnm6ZOegHAV5ZXN1Zifll+K32mdO2YvHQ1G1fudj+K3DB1TzdMnPQDgKYAVdS1ZOay77pAuKcYXljXsdoBOO4e3aGYmavDKQK70ZbEHmvCBh+aq5LKPCVAV0H/TbLi7WweU200kCeV1s9ia1n9/q+G0EnVD+P/aeJ/0zL9lTh7fR2T9hQ6+mNN3p8D7MZ1W75PnSD/ksr79MwAMvoDm80He7i5Tzvdxcp53u4uU873cXKed7uLlPO93Fynne7i5Tzvdxcp53u4uU9YdicoV+g7NS04I55xxLmCy2fQoy6PLOKVjn1aVILoJyQELYDrfuqQ0x853muRhoa0yZm9BxeRH18kUJVsDSPIR4oT8fJuBV0LKNOwCymFK4X3CfX7tfP7A6yewp3hEOWyYCa6EsV23NV182pUrLAYmKxr1h7dVDelMih7UmZUWI5PnHTHxNUzxYqVKiC940xndwTQB/vXLN03nu+KggTNPr6d5FurTaCXuSSf7cN8254hK+a3JFv/q19wOmlLgthVmgt7T8JoXsWYXOnSAX+FvJD3KaVsDtBfESGhkVNeukRJueBE4JF2FpAUZ3jp+eiCbIWniD0CwdewSOlt9udhaQFGd46fnogmyFp4g9AsHXsEjpbfbnYWkBRneOn56IJshaeIPQLB17BI6W3252FpAUZ3jp6LETCiECzVPxmZ/TUgQcocaRXK3YWkBR2OEyk0n3g6Sqh6XUL84oLKGAl2iZQ/1LFPsNjOFOdaGJfYl5/U4RSlBDnvVPO1R6rHD/1ZcAEOjcYEB9QPnwJ4xt7RbjFyCh5/rPS7ad48F0kPJLvc413RjYaw+9JGilgC/WZrXsXdI4w2HPquurVtvUVeCm8EniGO5dmYbi5aRRL9RfeW/kMIyGleuImFkxGnliO6q3wZ4sNS8ALUAMUXqil6KE3ULDLqlktVG7uE9dNpGtZ8h88Glh18YskbA2iHlJyxaCQjrKnL96nBMAMTVOvS+ZKEjGavU16Xsu9gzo4xUh1DajkNAxdZwmKVhlDlEbm18T9npW90gpzB1M9kZXIy/GP2w6Vky4IulCO5uXM835mH6HAcTWsENRCHw2w4pIkqoZCJ3K6c03NQ94rzBdGCz8Q06bJbdrHJ1L+fAudsL1ZtVUZ3XCU11RstKZS0lnEs08agJUQwMsSN18pyfNeStUe6prHGaKF/J7e0IBbgr7LUP02r/eYW5HO+94BNUwn/2yRHlctEQdsNXIjwVYRBkUbi86g3Wezba7A5i46+ehFo4e/4RzlDstYv/YBmIJdmHrQVtOI0SvXOJwbo1Jr/e/rGjUrit5EsrUULW8RZpf31q0nMwPYmsdu5gLXzHxGv5kdkTN7j6WanjsEfMKf+Gwp1cUt2UopCV5jjxptupY8MncWNLQaj22hozP0cggiDyvqE4KbkDROEsBAhC70WOPmlGOBaAFSpDwyuqD5xkZD9j72QEBWn6IkvRMngkkI5TvZEw9wgkl5F2sUwLiYMD8yC42NzpYePPq/2fW7X2M7MZRd4I0n32+YGRuGi+ybTc0//PSxB3IrKbQbHEJF3g8jUnSBe7imIZPDhakaVJub7h97zZhrI/BcvXHlmvMiCi/rIwG3YdR5zbJlIvUlI8bRSN3k6hOv5FSjaF5bzkmbjWFbH4VYAiY+W26tikvou9/X3+IVc47Xb67gIPWVswnbTwtZQQd49O8045hE6ixce+Gp2bINSsIJrgQTEv2dXx6REh5gkboHGsr4lKkbwNz4ICpiyBeqwyZeiTK0DE+qUK/ub8zSxXTrzBlp1dXbO3ljyZ9Inidi7pTMBeSnSMJLvkCc4zRdBm5U0mqfDyc8cFwwQ4eY4vD7cH9OGXybyV+GyYzRTMsrblIJgdqR7aP/+KssposThQESW/emLrUot1pXq8KXd2HKPqEhzyitrVhn6jIeLL1YafQA7d7G8NnxPgBhmFEslyiutzL/ZiKwhHf0pMa7qTUmHB83WOgN+wEDtmArNDc1Dj/B+7RWQH1mqt+VHzGfnkAByd2S4NXCHUfFjW9+DnOV5EsA0zfWqCgYsMZ107uTP2ldHLXcA6a8ScGFZDOTy/M9bDcR8tIV0CB4j2x+/seA1qbrlvpHog9ii2qa+LOcMFVJYm5NpAcRdsDoJ23QoqZ/tjH+mMLgjn5REh4TGfNZzIDd3GrA8Upo258FVsotidZTBjhWrbolDDhMa3lVx2X/0i8M+/4KLR6H7cjRSc/Mw0BlvwcGYhTRkZ4LauThR69ppvvLYtZfRBUZaqXgDCza2Nx4/en5CSnuXDiUCcRaIAP3hG3Pc0m0CZnGs52C/M2hGejwWPSdnZQtv9ckOabjoK9TN0y7sCTJMd8LCETRcl3cmv5FyqqvvjY6i98QHzE5sXlwI/sZ2Q4AvmKkIrpX9/8/QyhcGUf25zev37tgM0CuDLn0nYKyVZoGo0eC00SJW5kPETw6gCnGPFqa0QMDTcC1h7v70CJhnwrWNXWVebYghfYwbGUIDOqHdElGn00tbE0NUegxY0pYjP+QklQwQsduPsNYj1heOZlkmgmFdMCNAgPvijrluyZlhojXNotJj57g/ikXJKjyFz5QOEQmX90+6/4aYajpW3v9H4d864oWAYy1Ikph1lq/Oer95yvTh3OG/b279NLXL1hRhjM3mdcsLv92Z0aOUdNCjNSHjducBZioj3ESRUoHjN7axjtfFVcPA+qseIDKJSd7mPHCW0EOpcUmHWqlDOg4w8O5mhRwwgpSLgI7ULJQ1b+Biw14sptUWRdizhgKf7ClWmGBdDM2EULiUeHBzNhKnw8ViiFrn+X+wWGD6cEI2+lQCrm/1eO9rXAXt2Pu7VVvigydrbNyAW4NYlRrUzoNrzY7VrOnlCIwI0tq78hwAyEED4gV1WourLAS6q9i/oLTriWIJVi/MqX/GTxkBmr6glC2XuauVV/ZJkAS+oNuW7cSfGWsoqFM0mpbr7A+xjbXSnV8vp3jgZ44qhyE/va2zTBQvf4yTPCaTlM3PxQ9rQleOS5lccqNYKKmMTss2Qp1xPZ/FzWZPn750AXB8VNhiSyhn3BnOXbodqX/pokhQXDw74nr8WEvAQ+nj3GT/B3SnhzqtChEhWgYk1iBOFvQmUizXAayz/wvIXxBkEpY6UqY/TsPgB9IjDeODR2X3X1uu2toRHX5kypWLN/8FPXmgP4Vh7q7aeuTVQd++/oqgYhf+YJAj8BCnNr7usymhtfAhZMt/n+nI1+7ocm6kD1iqPDOdLzNFJS4YPNjnviO5oeAHXnsOVqyPyHHBp488cxKKZIyRxqTJerDzmGbfo4hzmzWsZNu+nAox0IOIMfOVpPF+fx7gLDkHQBfeR5t4+BMOVkotG2uuJ3VNnWcsHmWTf7EcsvmbPyubOkmybGVSoG10UEiHayP3k5zvsrhcZl79ByPRWTy62OEM1EGD7VIaMu42tuhQgg5XrlnRvidU1KxRhuT0hh60BCpp2Mm2XijQV2Wok3XOMYPHuSayYdjKmz7dCZjo1S/cNp468SHe2zfIxMr+NOBKRLU88LdDuuppmKMoksesE4gLzGW+8r3C/RJ6qpPYZOP1z7ZTXcju88WKB6hC76kSuGinKO3V/c25W2Q2P9jv5uhJpeQIgVIyDWLcP/AxhvuNemlX6M1CQDPtILr/7jsQ8Zlk4Vicyvm3VVY9CgVQKAAd13skWrS5qkMSJIhij8db8EomIeUkikNstbUUH/j//f10D32FYQDEDhjYb/PWj0ngKu+Tju8FlVZMe6JXsXMUlWy2NURpfKnN/r0J7UTF9VUioQU/FTCw15kX9kbsIJYX6rU75B9SX6iyphYHFM4wfvQIeKVRc47p//jEodK91un1UBBwbHBJD3nltu5p4X32cIFEZFo55AbSgD5t2uHazcGR+8Or2w8LQqdXz1JHZbdPTzZm+8bEu2OlBOVw3aRxAA9JvAelsMHgDH0+OEE9/uysFrbRvb1A6PNZy3TBaatnK9KcO3ksZoaZSNdmD7tiwvJpjSHri9sZ6uxHQkHwcHIamzhQprvVqE/DlaKBXG+DiRzRI7/HXNulDv+MHFtWrdhzBwZjgsytUUO5K5HRrEifwF9ycTiT0WaXyC1w/iP1W/LU6gET51l9ldq4mGIUX9Dj7ahuJg0cJPA1EhgVbx5sPGsxuYuWOGMZq1HPZ13i/pexd7f5aIqw7pIx4TCmVyZnGf9xO6TmT56dRL2ZWdYHX8271RCZU/Cd1nAeP2Znkb45/4OnTRTkQMU1ulyumS0k0/tA5+1vC4CVcD+IOE7g7g8l8R1jxVWIoCNwvxYIb3yoTisoEkesbbjIMc0Mn7oHkIakTMArP/IR7F3RFaBzrjUVJXtXse3W7yCYRTyxnU3I3RntzahxikiOQkPqYxurDIV66z7SbN6KpC2yjVZviKVcms3d8zs6DiPA0ZVc1TNVdr8F8LIeDsl1/IGvtbjmB7CBRKeLLxld+iiS33YGjT7zF2d1fjIg18iPO3C/Qa+mMYN8/Ppo+r/PDe2VX+sOrI0q4EWKQo/MF5vedEzt0AEFPAe8EXbqEn/4xESZQ8Wx0kZbi9rAA0C4Luc9HL0PfE3ayH3dUNLUGY0y9ZjkKdxWOO0XYVj6/pBcYBVfvtC5FS0bTuFTNp2oToCRpugFbeTx4SbZH80H8qL1Hmvie0gzbXKx2oCzA5qNXRgxMg00iLrDIQM0/549N9Hg0w0jGiy2YqGpT002crrbCqI9pfwBlJHVHatLUk/cwBZhI7WYf6rxH6LYPWh5rY1Sn41M6T5TVcqRWmtyhOgmekCTaO3hcGl/WwwXGm0Dpq1BVtWyKJeTX7KvJ/RyAUGqEviAMJHC9ktLnH/w1/6v4TQf91/6tEOGAflUvU05f+x+ef/evf38GS/PTf71R/e/67ut7MZKueEpfrmGAzdJ5lFAAwXXcMuCv7FtYEj+mmmyRe5/unArhcz4asn6Z8euYuwtreaR6ZMK81JKyPf/sjGlFbF40MAVH4eau4sxqgCGWzQEk0RxdBBXnnO3nOLgh9QZJ31DJEi6cQeoi2U8nNi6MoswU0zf2IOCE8Bharzj5cEUxusRmvrkJXQ5OuVl2a+da0EAd20XLsL5f/cu5z/xz/MEjX7DXW/ec5h1CVNXwOmNBtHS+pIlIaDqO8WSpL0Z+UQfKIlm4KT535fVremriQ3K2HazdC6CgUUMIxLifHkg1RwvgH3ZrpvQd3dR5amSyNlMhMcFdpfhhfy3tfxubhz3ZCymulJIG4ivnjWZeXY/KplbtZD2188MNoYlJYg5VOF6CEvIHBEczEUTXVYIZJ1Do3POnZ10i/TTQbazlj3XhiCUpcww4IT/k3BwnM7AbK51H+8Eye62dm2zqcvExy6e72blPGqq7D/IV2YFBmttmctpoRzkh9zA/bmT27Y9GIFdQQZNBUwvUHEP7EZhfMkVmPeedu5+FRCYzzEvKlKk3iqMLUA41yMIH0lxEmhoat51/sLycFQ+96Aro8V/qImO81xvIkd+r3SDYl/fCRiYlwhtZ4c3wAoQJj4GSCWuF3BU7aO2jckZbvb/n4sguEc5FbQtQ+red0pT+fZrk0BH36capHbOttbEd3qgre1U6gmDDeWnVwysao/ztphVK/6btOcC38RKMlPGeNnR6x8cri3/onQdldeD3AkxO2ekAHyZDmpdxbAL/M6VOf7WQeO523xvg0ipfTxNeHyi1bq/bj17Dv/jZ+U6oWpaH6tvb8tjYa4+yXNIms250qEieYE3zg8AjBUIuv/fX0HuPr1crn+c062sGmj/TkdQQzyK2+t62ZPaTSwWm6Dus2LtmPRvyNvi9XkN1UrjQ+s+xNLaP1Z5yjxOVhNriQ9RzvqIhRki2Rn54kSgGl7c6jjNlLsT//9WQ2YBQaWueqNhr9qQRj7eE5Jn7LdBwzvFrLx9aRt42yWP7pewikoejwPZUbzUE3+U+NLgkiE4SpbfnW1pTqXzdzWwzbGY32KxfsxRm1WMnrUB45vlcdVgNBkv56jh7kRYf+qK8vXM0k+lxA6u8rVdxpbvk6Iovv7T9nD6ChYwfMEsNzBB+BWxAmHp5yzBwA/IitdsLSg/sEtatgLHHaQmEf1q/sgBm/Ay67E0lXhHGcsN4B9TujDMa9UDcqJ4hb1reCWH32Euw5kq1AsY70ntLEDB6p3iKtn/qT4YUJerzCYWJ7ENGzk6B08zdT4qBwDWvv661UkYsQeNNkg7REE9vrvh+BalPRZMf6WtIE1+0FrRlwl5VSn/NghwZzMRjr07mG/Uel0dynQHUnEnC+6zsdrEXtr+JR1yFUhQLqH/dTxiM3Bsay1Et0Kd0tNxMNRLfCIQFClgDYG6r8jT1AqpSDOKk3oyKAub3Lxu3W3mDBC1HL35iRXtW6HYjz30wW90V7lHqXu6h/ctuX2vXMdK8Vft/juDIjcM48jTIzwTVuAo99Z2c131GivqPb8fbWmGhJIYFkyMhat50qYcfJR/SWnl0hUbNqMOi6LPgEZyUBUO6JMGfLmOr14ym1OWFNOmzNW7md4TjwgTeMSu12sqto+ymfCU0aWmv+Op0z6lGlNpj2hMcM6ZN3ME/pVekFXd137T8iQhD5LxDfz5mnZQNFVA/cf3pF30mHl9ogVj+bI+DVJAeNXDcfmbhpG0fl+PwWK0/RZKtblBWoZE8nt7eJb5Zvm3FClmXBCR/VidQfu4Mh9gKuM0s7cH1wEYA1Z8cyj6FfoJxueWrN5PRg96yqZ31Y/44KOkq6uIqF30lH1bwQvJXzOQfDhq10V/C4V1M/aNT8qps6ryRk+ptYqU9NfzYltxaXHD4TvSeQEtUkB2brg4S3xnLutrwQGWqAL3yNsaVOVACEIGakAGQLfU1Nudp45miv2DnqZtZF4NxzXsYV6TdORAhD4aoPpYqU77hPnaPbTTFPieXXwTJHoRwoIl7B7H428vAiuVIct72o2ztS/2mAFKvV8+FNl/bD9nDZAR58guCMPRT7z77KqOgbJlPH1RgxJd6YfGDVG20ax9BakdtghkuQj1L/557V4963LsXsT+0SvAAfMtqNAHaD06OyeMnIFnwtvS/cTNk2vEoeVf9SLPFElL8++oWsrM8LwMDRp3jDD/oHxZa0ZwdPTdAWmepFbIfvbI0XKKAZlWpdfqGNEo/P314IUlAIa5J3X2rGeN2ha10ykW5CEIIcHcyv5XztDN3Jv61z2pe+eNFNdLEkuwksf1hSAH/XfGXGJICefaErbYdZmks89Q2QTh4gUihrOwpdDj8U2cGHQAsWYIZwY7D+sx0Fg3f1kazshZf1NKq/hyDDUIeNiYIxhgYX65mc1QGvHVl8MZhbeMxPwmwbG2Z1aPMtZDbDMXjM1w3wtDP4L9Amj99bZRbDZGowrffr0kDU1gtEldpcGLwv7tFOXcm6ZguMpJFCj9LBFyrlXHFRzHtH1mkVmZL17NyH3A+Dhyq7ooPwcLsqL5KAt6L4aW0KzFprQLm3ihXt7zFg8LkWtK0eW4Trq6ppdTz6NfqC9r69FnoFoZQ3xcHd5DI/GMSqsrk/7siGEVbr6pgwMGxamlhqiwiM0pxE8rj71gWoJSG+XGSzJgkRX8mtrpFKIAILtrRUksP8sMxAm9todeLp3Km9Hz7t7qkvpcEyQIvv+APiFZ/fSTs6vIK2V8VAXqVzEm3irSWnUUWNkaD2InUzr7nlwJGjqOhV3E1iLR7ptuPEvT59I+/WuAItfjvv5H+51RDProFDPkktQLjm7yW2tBuikZWCZXYuU/33JBv4lIuyWSQGtjpBw3aU+ziRTwrM/4G2Sn3P1hhBVHxkMFMiu6sZQ2BMGKV4IjjYTBHQEd9+SxALwLMBjAt63IMFCj0kkwyfxGs++rbsmC9B2RNkgkTUtJO5/ywsySlDH799Z5jx+a3+N4pmhVhlGgsX44y0s4fLikPhFwSIZcU6WPDIf8vd7z2nZmANLrX3v4YVeTJ94SWlSZgD01gXiGc2s+/jqwQa83l3DsI/YGpb2DJwY2bCA2HfFBIL8B4heYBNTs36B9hRBV6om0neMHBI0kZ+Y2AbSg+f5c5u5G29fnHBommzK0zMuThO9ERDXDVzMgqqozATQpNQOTyEVkb9BtPJhmNUUc4ApElhpE+p8Y6RVEAMStEhSAzPRwfCSpYSjPLdbFGh94Gyqdiuvq937DM/TuNKJvjUNXWh6Jhkx0D55rb8km36K+Si5q2Aby+wqiDDMj3jQ6VSvQJ9PfxhRyxwkpyEzZ0q9JOzq7kBhgOdsNtzQh/D0BlMburcpwOg+V+/Wi9BCPKoMRr6mYmyAb5bZC//dDWJQyl9hKTWnWpFKwT9o8DXUOlZ6B1KkjbJiVX6rGxTo44TTVt+Y6lcKIPyYMfjuRMorAmZpTIrf4sd8uD41950IKw2l/Y75d40NdSnpdETHC3DqRe/xZTMiWvJ/rl2wLZpviv5hPi3vPV5Vtgu8oS3hdxFWqhxZdQNaS09L825x2gTFCwQ6QlmkizROsoLrCZreNDOdxYFGssc4Wule/RI0riRJld1qlZNRfxUPpFueln5jBA4ELUAcsttZprNgc52C8fgByy21mmrlyQmP9GWu01mwOc7BePwA5ZbSo01mwOc7BePwA5ZbazTWbA5zsF4/ADlkDjf0Y05l8F3F1AXEC8H7leaUSi62LKAFVwx107MzHg9e0cOuwG9rYdeubdlcRMApYD5gndKPzeSjVa8swB+tg2HBi8/zYGKYbyphXJpG//7Hk6YOWh6BKUHenkGaZBcenVjNn56ixVAAxkga9QVTGZ5uRYqgAYyQNeoKpjM83IsVQAMZIGvUFUxmebkWKoAGMkDXqCqYzPNyLFT/TtSfMs8J8OPFtYFX08sNkca2cKqYSY2EUUdj1UgWttGtzADggz66xiXTK2vY2AAA=;" vertex="1" parent="1">
          <mxGeometry x="-70" y="465" width="110" height="110" as="geometry" />
        </mxCell>
        <mxCell id="0Gz_GeR-MyqR9cpySsA0-28" value="&lt;div&gt;numeric&lt;/div&gt;&lt;div&gt;integration&lt;br&gt;&lt;/div&gt;" style="edgeStyle=orthogonalEdgeStyle;rounded=0;orthogonalLoop=1;jettySize=auto;html=1;exitX=0;exitY=0.25;exitDx=0;exitDy=0;entryX=0;entryY=0.75;entryDx=0;entryDy=0;" edge="1" parent="1" source="0Gz_GeR-MyqR9cpySsA0-4" target="0Gz_GeR-MyqR9cpySsA0-4">
          <mxGeometry x="-0.0009" y="-20" relative="1" as="geometry">
            <Array as="points">
              <mxPoint x="140" y="340" />
              <mxPoint x="140" y="380" />
            </Array>
            <mxPoint as="offset" />
          </mxGeometry>
        </mxCell>
        <mxCell id="0Gz_GeR-MyqR9cpySsA0-33" value="" style="endArrow=none;dashed=1;html=1;dashPattern=1 3;strokeWidth=2;rounded=0;" edge="1" parent="1">
          <mxGeometry width="50" height="50" relative="1" as="geometry">
            <mxPoint x="-40" y="420" as="sourcePoint" />
            <mxPoint x="680" y="420" as="targetPoint" />
          </mxGeometry>
        </mxCell>
        <mxCell id="0Gz_GeR-MyqR9cpySsA0-34" value="" style="endArrow=none;dashed=1;html=1;dashPattern=1 3;strokeWidth=2;rounded=0;" edge="1" parent="1">
          <mxGeometry width="50" height="50" relative="1" as="geometry">
            <mxPoint x="-40" y="300" as="sourcePoint" />
            <mxPoint x="680" y="300" as="targetPoint" />
          </mxGeometry>
        </mxCell>
        <mxCell id="0Gz_GeR-MyqR9cpySsA0-35" value="Physical Level" style="text;html=1;align=center;verticalAlign=middle;resizable=0;points=[];autosize=1;strokeColor=none;fillColor=none;horizontal=0;fontSize=15;" vertex="1" parent="1">
          <mxGeometry x="640" y="150" width="40" height="110" as="geometry" />
        </mxCell>
        <mxCell id="0Gz_GeR-MyqR9cpySsA0-36" value="Electrical Level" style="text;html=1;align=center;verticalAlign=middle;resizable=0;points=[];autosize=1;strokeColor=none;fillColor=none;horizontal=0;fontSize=15;" vertex="1" parent="1">
          <mxGeometry x="640" y="305" width="40" height="110" as="geometry" />
        </mxCell>
        <mxCell id="0Gz_GeR-MyqR9cpySsA0-37" value="Software Level" style="text;html=1;align=center;verticalAlign=middle;resizable=0;points=[];autosize=1;strokeColor=none;fillColor=none;horizontal=0;fontSize=15;" vertex="1" parent="1">
          <mxGeometry x="640" y="465" width="40" height="110" as="geometry" />
        </mxCell>
        <mxCell id="0Gz_GeR-MyqR9cpySsA0-38" value="" style="endArrow=none;dashed=1;html=1;dashPattern=1 3;strokeWidth=2;rounded=0;" edge="1" parent="1">
          <mxGeometry width="50" height="50" relative="1" as="geometry">
            <mxPoint x="80" y="600" as="sourcePoint" />
            <mxPoint x="680" y="600" as="targetPoint" />
          </mxGeometry>
        </mxCell>
      </root>
    </mxGraphModel>
  </diagram>
</mxfile>
